<svg width="30" height="30" viewBox="0 0 30 30" fill="none" xmlns="http://www.w3.org/2000/svg">
<path d="M25 17.5C24.885 17.58 22.5 20.1037 22.5 21.875C22.5 23.7425 23.6862 24.935 25 25C26.1325 25.055 27.5 23.8862 27.5 21.875C27.5 20 25.115 17.58 25 17.5ZM11.9825 25C12.455 25.4725 13.0825 25.7325 13.75 25.7325C14.4175 25.7325 15.045 25.4725 15.5175 25L24.2675 16.25L23.3837 15.3662L13.75 5.7325L10.8837 2.86625L9.11624 4.63375L11.9825 7.5L4.99999 14.4825C4.52749 14.955 4.26749 15.5825 4.26749 16.25C4.26749 16.9175 4.52749 17.545 4.99999 18.0175L11.9825 25ZM13.75 9.2675L20.7325 16.25H6.76749L13.75 9.2675Z" fill="white"/>
</svg>
